<?xml version="1.0" encoding="UTF-8"?>
<svg id="Layer_5" xmlns="http://www.w3.org/2000/svg" version="1.1" xmlns:xlink="http://www.w3.org/1999/xlink" viewBox="0 0 1200 1200">
  <!-- Generator: Adobe Illustrator 29.3.0, SVG Export Plug-In . SVG Version: 2.1.0 Build 146)  -->
  <defs>
    <style>
      .st0 {
        fill: #39b54a;
      }

      .st1 {
        filter: url(#drop-shadow-3);
      }

      .st1, .st2, .st3 {
        fill: #ed1c24;
        stroke: #fff;
        stroke-miterlimit: 10;
        stroke-width: 20px;
      }

      .st4, .st5 {
        fill: #fff;
      }

      .st5 {
        font-size: 159.2px;
      }

      .st5, .st6 {
        display: none;
      }

      .st5, .st7 {
        font-family: Bestigia-Regular, Bestigia;
      }

      .st2 {
        filter: url(#drop-shadow-2);
      }

      .st3 {
        filter: url(#drop-shadow-1);
      }

      .st7 {
        font-size: 340px;
      }
    </style>
    <filter id="drop-shadow-1" x="-1134.8" y="85.2" width="1043.8" height="1043.8" filterUnits="userSpaceOnUse">
      <feOffset dx="7" dy="7"/>
      <feGaussianBlur result="blur" stdDeviation="20"/>
      <feFlood flood-color="#000" flood-opacity=".2"/>
      <feComposite in2="blur" operator="in"/>
      <feComposite in="SourceGraphic"/>
    </filter>
    <filter id="drop-shadow-2" x="85.1" y="81.4" width="1043.8" height="1043.8" filterUnits="userSpaceOnUse">
      <feOffset dx="7" dy="7"/>
      <feGaussianBlur result="blur1" stdDeviation="20"/>
      <feFlood flood-color="#000" flood-opacity=".2"/>
      <feComposite in2="blur1" operator="in"/>
      <feComposite in="SourceGraphic"/>
    </filter>
    <filter id="drop-shadow-3" x="-1134.8" y="85.2" width="1043.8" height="1043.8" filterUnits="userSpaceOnUse">
      <feOffset dx="7" dy="7"/>
      <feGaussianBlur result="blur2" stdDeviation="20"/>
      <feFlood flood-color="#000" flood-opacity=".2"/>
      <feComposite in2="blur2" operator="in"/>
      <feComposite in="SourceGraphic"/>
    </filter>
  </defs>
  <rect x="-1220" width="1200" height="1200"/>
  <g class="st6">
    <circle class="st3" cx="-620" cy="600" r="451.8"/>
    <g>
      <path class="st4" d="M-220.8,455.9c-3.5,10.9-7,21.7-10.6,32.6-6.6,20.3-13.2,40.6-19.8,60.9-5.6,17.3-11.3,34.6-16.9,52-6.2,19.2-12.4,38.4-18.7,57.5-6,18.4-12,36.8-17.9,55.2-2.8,8.5-5.5,17-8.3,25.5-.7,2.2-.7,2.2-2.9,2.3-5.2.2-10.4.3-15.6.4-8.2.3-16.4.7-24.7,1-5.3.2-10.7.3-16,.5-4,.1-7.9.3-11.9.4-2.2,0-2.2.1-3-1.9-8.5-21.2-17-42.3-25.4-63.5-14.4-35.9-28.8-71.8-43.2-107.6-6.8-16.9-13.5-33.7-20.3-50.6-.6-1.6-1.4-2.3-3.2-2.4-5-.2-10.1,0-15.1.5-8.1.7-16,2.4-23.8,4.9-11.9,3.7-23,9.1-33.6,15.6-13.2,8.1-25.3,17.6-36.8,27.8-13,11.6-25,24.2-36.7,37.2-12.4,13.8-24.6,27.7-37.1,41.4-16.2,17.8-33.9,33.9-53.3,48.2-23.5,17.2-48.9,30.7-76.6,39.8-10.1,3.3-20.3,6.1-30.7,7.9-6.2,1.1-12.4,1.9-18.7,2-4.8.1-9.6.2-14.4,0-4.8-.3-9.7-.8-14.5-1.5-9.9-1.4-19.6-3.9-28.9-7.8-5.4-2.3-10.7-2.1-16.1-.6-5.3,1.5-10.7,3.2-16,4.6-6.4,1.6-12.9,2.6-19.4,3.5-9,1.1-18,1.7-27.1,1.9-9.1.1-18.1.2-27.2.1-4.1,0-8.3-.2-12.4-.3-.6,0-1.2,0-1.7-.1-.4-1.4-.5-47.4,0-49.4.6,0,1.3,0,2,0,11,0,22,.2,33.1.1,5,0,10.1-.1,15.1-.6,9.8-.9,19-3.7,27-9.8,8.2-6.3,12.8-14.6,14-24.8.7-6.3.3-12.7.3-19,0-1.4,0-2.8,0-4.3,0-55.7,0-111.3,0-167,0-2.5.3-4.9.9-7.3,1.5-.4,64.2-.4,66.3,0,.5,2.2.8,4.6.8,6.9,0,6.8,0,13.5,0,20.3,0,11.5,0,23.1,0,34.6,0,20.8,0,41.7,0,62.5,0,12.7,0,25.5-.1,38.2,0,10.2-.2,20.4-.5,30.5-.2,7.8-.7,15.6-2.2,23.3-1.9,9.6-6.1,18-12.4,25.4-5.4,6.4-11.5,12.1-17.6,17.8-2.2,2-4.4,4-6.6,6-.4.4-.8.8-1.4,1.5,2.4.7,4.5,1.3,6.6,1.8,7,1.6,14.2,2.6,21.4,3,5.6.3,11.3.2,16.9-.2,7.1-.5,14.1-1.5,21.1-2.7,8.8-1.5,17.4-3.4,25.9-6,20.9-6.3,40.1-16.1,57.8-28.7,13.9-9.9,26.4-21.1,38.2-33.4,10-10.4,19.5-21.3,28.1-32.9,5.4-7.3,10.4-14.8,15.3-22.5,8.4-13.1,17.1-26,26.6-38.4,10-12.9,19.6-26,30.2-38.4,10.1-11.8,20.9-22.9,33-32.8,19.6-15.9,41.6-26.8,66.3-32.4,6.6-1.5,13.3-2.6,20.1-3.3,10.3-1.2,20.7-1.5,31-1.3,5.3.1,10.5.7,15.8.9,2.5.1,5.1,0,7.6-.2.9,0,1.8,0,2.8,0,27.7,71,55.4,142.1,83.1,213.1.1,0,.3,0,.4,0,.2-.6.5-1.1.7-1.7,2-6.7,4-13.4,6.1-20.1,11.2-37.1,22.5-74.2,33.7-111.3,8.1-26.7,16.2-53.5,24.3-80.2.2-.7.4-1.3.7-2.1,1.9-.1,3.7-.3,5.6-.4,7.4-.3,14.8-.5,22.2-.7,8.9-.3,17.8-.6,26.6-.9,3.2-.1,6.4-.2,9.6-.4.5,0,.9-.2,1.4-.3.1,0,.2,0,.4,0Z"/>
      <path class="st0" d="M-727.5,660.7c-.4-.8-.7-1.4-.9-1.9-11.5-27.3-23-54.6-34.5-81.8-5.7-13.4-11.3-26.8-17-40.3q-1.2-2.7-4.2-1.7c0,.7,0,1.5,0,2.4,0,27.3,0,54.6,0,81.9,0,17.1,0,34.1,0,51.2,0,7.3.3,14.6.3,21.8,0,1.5-.2,3.1-.5,4.6-.8,3.7-2.9,6.4-6.2,8.3-1.5.9-3.2,1.5-4.9,2.1-16.6,5.8-33.2,11.5-49.8,17.2-.5.2-1,.3-1.7.4,0-.6-.2-1-.2-1.4,0-.6,0-1.2,0-1.8,0-86.2,0-172.3,0-258.5s0-2,0-3.1c.7,0,1.2-.1,1.8-.1,26.3,0,52.5,0,78.8,0,6.8,0,13.6.2,20.4.3,1.6,0,2.9.7,4,1.6,2.7,2.3,4.7,5.2,6,8.5,4.2,10.9,8.5,21.7,12.6,32.6,7.5,19.7,14.9,39.5,22.4,59.3,3.3,8.7,6.5,17.5,9.8,26.2,1.1,2.9,2.5,5.7,3.8,8.6,1,2.2,1.7,4.6,1.9,7,.3,3.6-.4,7-2.3,10-1.1,1.8-2.3,3.6-3.8,5.1-10.2,11.1-19.8,22.8-29.6,34.3-1.6,1.9-3.2,3.8-4.8,5.7-.4.4-.8.8-1.3,1.4Z"/>
      <path class="st0" d="M-479.2,527.3v215.5h-64.7c0-.8-.2-1.6-.2-2.4,0-12,0-24,0-36.1,0-31.5.1-63,.1-94.5,0-16.3-.2-32.7-.2-49,0-2.4,0-4.9.4-7.3.7-4.8,3.1-8.6,7.3-11,3.1-1.8,6.4-3.3,9.7-4.8,7.7-3.4,15.6-6.5,23.9-8.5,7.2-1.7,14.4-2.5,21.8-2.3.6,0,1.3.2,1.9.3Z"/>
      <path class="st0" d="M-556.4,558.3c-1,2.5-2,4.9-3,7.3-9.1,22.3-18.3,44.6-27.3,67-13.4,33.5-26.5,67.1-39.8,100.6-.8,1.9-1.7,3.8-2.9,5.5-2.2,3.4-5.5,5-9.4,5.1-3.1.1-6.2,0-9.2-.1-7.2,0-14.5-.2-21.7-.2-6,0-12.1.3-18.1.3-1.3,0-2.7-.2-4-.5-3.4-.8-5.7-3-7-6.2-1-2.5-1.8-5.1-2.8-7.7-2.4-6.1-4.8-12.2-7.3-18.3-.1-.3-.2-.7-.4-1-.4-.8-.2-1.4.4-2,2.2-2.3,4.4-4.6,6.7-6.9,10.1-10.4,20.2-20.9,30.3-31.3,7.3-7.5,14.6-15,21.9-22.6,9.9-10.2,19.7-20.4,29.6-30.7,6.4-6.6,12.8-13.2,19.2-19.8,8.2-8.5,16.5-17,24.7-25.5,5.1-5.3,10.3-10.6,15.5-15.9.1-.1.3-.2.6-.4,1.4,1,2.7,2.1,4.2,3.2Z"/>
    </g>
  </g>
  <text class="st5" transform="translate(906.1 727)"><tspan x="0" y="0">x</tspan></text>
  <g>
    <g>
      <circle class="st2" cx="600" cy="596.2" r="451.8"/>
      <g class="st6">
        <path class="st4" d="M948.8,457.3c-3.3,10.1-6.5,20.1-9.8,30.2-6.1,18.8-12.2,37.6-18.3,56.4-5.2,16.1-10.4,32.1-15.6,48.2-5.8,17.8-11.5,35.5-17.3,53.3-5.5,17-11.1,34.1-16.6,51.1-2.6,7.9-5.1,15.7-7.7,23.6-.7,2-.7,2-2.7,2.1-4.8.1-9.7.2-14.5.4-7.6.3-15.2.6-22.9.9-4.9.2-9.9.3-14.8.4-3.7.1-7.3.3-11,.4-2,0-2,.1-2.8-1.8-7.9-19.6-15.7-39.2-23.6-58.8-13.3-33.2-26.7-66.5-40-99.7-6.3-15.6-12.6-31.2-18.8-46.9-.6-1.5-1.3-2.1-2.9-2.2-4.7-.2-9.3,0-14,.5-7.5.7-14.8,2.3-22,4.5-11,3.4-21.3,8.5-31.1,14.5-12.2,7.5-23.4,16.3-34.1,25.8-12.1,10.7-23.2,22.4-34,34.4-11.5,12.8-22.8,25.7-34.4,38.4-15,16.5-31.4,31.5-49.4,44.6-21.8,15.9-45.3,28.4-71,36.8-9.3,3.1-18.8,5.6-28.5,7.4-5.7,1-11.5,1.7-17.3,1.9-4.4.1-8.9.2-13.3,0-4.5-.2-9-.7-13.4-1.4-9.2-1.3-18.2-3.6-26.7-7.2-5-2.1-9.9-2-14.9-.5-4.9,1.4-9.9,2.9-14.9,4.2-5.9,1.5-11.9,2.4-17.9,3.2-8.3,1.1-16.7,1.6-25.1,1.8-8.4.1-16.8.1-25.2.1-3.8,0-7.7-.2-11.5-.2-.5,0-1.1,0-1.6-.1-.4-1.3-.4-43.9,0-45.8.6,0,1.2,0,1.9,0,10.2,0,20.4.2,30.6.1,4.7,0,9.3-.1,14-.5,9.1-.9,17.6-3.5,25-9.1,7.6-5.8,11.9-13.5,13-23,.7-5.9.3-11.7.3-17.6,0-1.3,0-2.6,0-3.9,0-51.6,0-103.2,0-154.7,0-2.3.3-4.6.8-6.8,1.3-.3,59.4-.4,61.5,0,.5,2.1.8,4.2.8,6.4,0,6.3,0,12.5,0,18.8,0,10.7,0,21.4,0,32.1,0,19.3,0,38.6,0,57.9,0,11.8,0,23.6,0,35.4,0,9.4-.2,18.9-.4,28.3-.2,7.2-.6,14.4-2,21.6-1.7,8.9-5.7,16.6-11.5,23.5-5,5.9-10.6,11.2-16.3,16.5-2,1.9-4.1,3.7-6.1,5.6-.4.4-.7.8-1.3,1.4,2.2.6,4.2,1.2,6.1,1.7,6.5,1.5,13.1,2.4,19.8,2.8,5.2.3,10.4.1,15.6-.2,6.6-.4,13.1-1.4,19.6-2.5,8.1-1.4,16.1-3.1,24-5.5,19.4-5.9,37.1-14.9,53.6-26.6,12.8-9.1,24.5-19.6,35.4-31,9.3-9.7,18.1-19.8,26.1-30.5,5-6.7,9.7-13.7,14.2-20.8,7.8-12.2,15.8-24.1,24.7-35.5,9.2-11.9,18.2-24.1,28-35.6,9.3-11,19.4-21.3,30.6-30.4,18.1-14.8,38.6-24.8,61.4-30,6.1-1.4,12.4-2.4,18.6-3.1,9.6-1.1,19.2-1.4,28.8-1.2,4.9.1,9.7.6,14.6.8,2.4.1,4.7,0,7.1-.1.8,0,1.6,0,2.6,0,25.7,65.8,51.3,131.6,77,197.5.1,0,.3,0,.4,0,.2-.5.5-1,.6-1.6,1.9-6.2,3.7-12.4,5.6-18.6,10.4-34.4,20.8-68.8,31.2-103.2,7.5-24.8,15-49.6,22.5-74.3.2-.6.4-1.2.6-1.9,1.8-.1,3.5-.3,5.1-.4,6.9-.2,13.7-.5,20.6-.7,8.2-.3,16.5-.5,24.7-.8,3-.1,5.9-.2,8.9-.4.4,0,.8-.2,1.3-.2.1,0,.2,0,.3,0Z"/>
        <path class="st0" d="M479.3,647.1c-.3-.7-.6-1.3-.8-1.8-10.7-25.3-21.3-50.6-31.9-75.8-5.2-12.4-10.5-24.9-15.7-37.3q-1.1-2.5-3.9-1.5c0,.7,0,1.4,0,2.2,0,25.3,0,50.6,0,75.9,0,15.8,0,31.6,0,47.4,0,6.7.3,13.5.3,20.2,0,1.4-.2,2.9-.5,4.2-.8,3.4-2.7,6-5.8,7.6-1.4.8-3,1.4-4.5,1.9-15.4,5.3-30.8,10.6-46.1,16-.5.2-.9.3-1.5.4,0-.5-.2-.9-.2-1.3,0-.5,0-1.1,0-1.6,0-79.8,0-159.7,0-239.5s0-1.8,0-2.9c.7,0,1.2-.1,1.6-.1,24.3,0,48.7,0,73,0,6.3,0,12.6.2,18.9.3,1.5,0,2.7.6,3.7,1.5,2.5,2.1,4.3,4.8,5.5,7.9,3.9,10.1,7.9,20.1,11.7,30.2,7,18.3,13.8,36.6,20.7,54.9,3.1,8.1,6,16.2,9.1,24.3,1,2.7,2.4,5.3,3.5,8,.9,2.1,1.5,4.2,1.7,6.5.3,3.3-.4,6.5-2.2,9.3-1,1.7-2.2,3.3-3.5,4.8-9.5,10.3-18.4,21.1-27.4,31.8-1.5,1.8-3,3.5-4.5,5.3-.3.4-.7.8-1.2,1.3Z"/>
        <path class="st0" d="M709.3,523.6v199.7h-59.9c0-.7-.2-1.5-.2-2.2,0-11.1,0-22.3,0-33.4,0-29.2.1-58.4.1-87.6,0-15.1-.2-30.3-.2-45.4,0-2.2,0-4.5.3-6.7.6-4.4,2.9-8,6.8-10.2,2.9-1.7,5.9-3.1,9-4.4,7.2-3.2,14.5-6,22.1-7.9,6.6-1.6,13.4-2.4,20.2-2.1.6,0,1.2.2,1.8.3Z"/>
        <path class="st0" d="M637.8,552.2c-1,2.3-1.9,4.6-2.8,6.8-8.4,20.7-17,41.4-25.3,62.1-12.4,31-24.6,62.2-36.9,93.2-.7,1.8-1.6,3.5-2.6,5.1-2,3.1-5.1,4.6-8.8,4.8-2.8.1-5.7,0-8.6-.1-6.7,0-13.4-.2-20.1-.2-5.6,0-11.2.2-16.8.3-1.2,0-2.5-.2-3.7-.4-3.2-.8-5.3-2.8-6.5-5.8-.9-2.3-1.6-4.8-2.6-7.1-2.2-5.7-4.5-11.3-6.7-17-.1-.3-.2-.6-.4-.9-.4-.8-.2-1.3.4-1.9,2.1-2.1,4.1-4.3,6.2-6.4,9.3-9.7,18.7-19.3,28-29,6.8-7,13.5-13.9,20.3-20.9,9.2-9.5,18.3-18.9,27.5-28.4,5.9-6.1,11.8-12.2,17.8-18.3,7.6-7.9,15.2-15.8,22.9-23.7,4.8-4.9,9.5-9.9,14.3-14.8.1-.1.3-.2.5-.4,1.3,1,2.5,1.9,3.9,3Z"/>
      </g>
    </g>
    <g>
      <path class="st4" d="M266.6,644.9v-161.2h46.6v142.8c0,11.1-.3,20.7-1,28.9-.7,8.2-1.4,13.5-2,16l-1,4.1c-4.8,16.5-13.9,28.2-27.4,34.9-13.5,6.7-27.8,8.7-43,5.9-12-2.3-21-8.2-26.9-17.7l5.4-6.1c.2,0,.5.1.7.3.2.2.5.5.7.7,9.3,4.1,17.8,4.9,25.5,2.4,15-4.3,22.4-21.3,22.4-51Z"/>
      <path class="st0" d="M561.8,552.7c9.1,3.2,16,9.4,20.7,18.7,4.8,9.3,7.1,19.3,7.1,29.9v113.6h-46.6v-125.5c0-4.8-1-9.1-3.1-12.9-2-3.9-4.9-6-8.5-6.5-7.5-.7-13.8,4.8-19,16.3-3.6,7.9-7,19.8-10.2,35.7-2,9.3-4.4,23.5-7.1,42.5-1.8,14.7-3.1,26.5-3.7,35.4-.2,1.4-.5,3.4-.7,6.1-.2,2.7-.5,4.8-.7,6.1v2.7h-46.6v-125.5c0-4.8-1-9.1-3.1-12.9-2-3.9-4.9-6-8.5-6.5-7.5-.7-13.8,4.8-19,16.3-3.6,7.9-7,19.8-10.2,35.7-2,9.3-4.4,23.5-7.1,42.5-1.8,14.7-3.1,26.5-3.7,35.4-.9,6.8-1.4,11.8-1.4,15h-46.6v-160.5h46.6v102.3c.5-5.4.9-9.4,1.4-11.9,3.4-26.5,8.5-47.1,15.3-61.9,5-11.6,11.4-19.9,19.4-25.2,4.8-3.4,10.8-5.6,18-6.5,7.3-.9,13.1-.5,17.7,1.4,9.1,3.2,16,9.4,20.7,18.7,4.8,9.3,7.1,19.3,7.1,29.9v54.7c0-1.1.2-2.9.5-5.4.3-2.5.6-4.4.9-5.8,3.4-26.5,8.5-47.1,15.3-61.9,5-11.6,11.4-19.9,19.4-25.2,5-3.4,11-5.6,18.2-6.5,7.1-.9,13-.5,17.5,1.4Z"/>
      <path class="st4" d="M754.2,554.4h15l-53.4,147.9c-2.9,8.2-8.8,12.2-17.7,12.2h-37.4l-57.8-160.1h50.3l50.7,140.8,50.3-140.8Z"/>
      <path class="st4" d="M903.1,589.5l.7,1.4,83,123.8h-55.4l-4.1-7.1-58.5-87.7-75.1,94.9h-16l83.6-105.7v-.3l-6.5-9.5-6.1-9.2-71.1-106.4h54.4l63.6,95.2,75.1-94.9h16l-83.6,105.7Z"/>
    </g>
  </g>
  <g>
    <g>
      <circle class="st1" cx="-620" cy="600" r="451.8"/>
      <g class="st6">
        <path class="st4" d="M-271.2,461.2c-3.3,10.1-6.5,20.1-9.8,30.2-6.1,18.8-12.2,37.6-18.3,56.4-5.2,16.1-10.4,32.1-15.6,48.2-5.8,17.8-11.5,35.5-17.3,53.3-5.5,17-11.1,34.1-16.6,51.1-2.6,7.9-5.1,15.7-7.7,23.6-.7,2-.7,2-2.7,2.1-4.8.1-9.7.2-14.5.4-7.6.3-15.2.6-22.9.9-4.9.2-9.9.3-14.8.4-3.7.1-7.3.3-11,.4-2,0-2,.1-2.8-1.8-7.9-19.6-15.7-39.2-23.6-58.8-13.3-33.2-26.7-66.5-40-99.7-6.3-15.6-12.6-31.2-18.8-46.9-.6-1.5-1.3-2.1-2.9-2.2-4.7-.2-9.3,0-14,.5-7.5.7-14.8,2.3-22,4.5-11,3.4-21.3,8.5-31.1,14.5-12.2,7.5-23.4,16.3-34.1,25.8-12.1,10.7-23.2,22.4-34,34.4-11.5,12.8-22.8,25.7-34.4,38.4-15,16.5-31.4,31.5-49.4,44.6-21.8,15.9-45.3,28.4-71,36.8-9.3,3.1-18.8,5.6-28.5,7.4-5.7,1-11.5,1.7-17.3,1.9-4.4.1-8.9.2-13.3,0-4.5-.2-9-.7-13.4-1.4-9.2-1.3-18.2-3.6-26.7-7.2-5-2.1-9.9-2-14.9-.5-4.9,1.4-9.9,2.9-14.9,4.2-5.9,1.5-11.9,2.4-17.9,3.2-8.3,1.1-16.7,1.6-25.1,1.8-8.4.1-16.8.1-25.2.1-3.8,0-7.7-.2-11.5-.2-.5,0-1.1,0-1.6-.1-.4-1.3-.4-43.9,0-45.8.6,0,1.2,0,1.9,0,10.2,0,20.4.2,30.6.1,4.7,0,9.3-.1,14-.5,9.1-.9,17.6-3.5,25-9.1,7.6-5.8,11.9-13.5,13-23,.7-5.9.3-11.7.3-17.6,0-1.3,0-2.6,0-3.9,0-51.6,0-103.2,0-154.7,0-2.3.3-4.6.8-6.8,1.3-.3,59.4-.4,61.5,0,.5,2.1.8,4.2.8,6.4,0,6.3,0,12.5,0,18.8,0,10.7,0,21.4,0,32.1,0,19.3,0,38.6,0,57.9,0,11.8,0,23.6,0,35.4,0,9.4-.2,18.9-.4,28.3-.2,7.2-.6,14.4-2,21.6-1.7,8.9-5.7,16.6-11.5,23.5-5,5.9-10.6,11.2-16.3,16.5-2,1.9-4.1,3.7-6.1,5.6-.4.4-.7.8-1.3,1.4,2.2.6,4.2,1.2,6.1,1.7,6.5,1.5,13.1,2.4,19.8,2.8,5.2.3,10.4.1,15.6-.2,6.6-.4,13.1-1.4,19.6-2.5,8.1-1.4,16.1-3.1,24-5.5,19.4-5.9,37.1-14.9,53.6-26.6,12.8-9.1,24.5-19.6,35.4-31,9.3-9.7,18.1-19.8,26.1-30.5,5-6.7,9.7-13.7,14.2-20.8,7.8-12.2,15.8-24.1,24.7-35.5,9.2-11.9,18.2-24.1,28-35.6,9.3-11,19.4-21.3,30.6-30.4,18.1-14.8,38.6-24.8,61.4-30,6.1-1.4,12.4-2.4,18.6-3.1,9.6-1.1,19.2-1.4,28.8-1.2,4.9.1,9.7.6,14.6.8,2.4.1,4.7,0,7.1-.1.8,0,1.6,0,2.6,0,25.7,65.8,51.3,131.6,77,197.5.1,0,.3,0,.4,0,.2-.5.5-1,.6-1.6,1.9-6.2,3.7-12.4,5.6-18.6,10.4-34.4,20.8-68.8,31.2-103.2,7.5-24.8,15-49.6,22.5-74.3.2-.6.4-1.2.6-1.9,1.8-.1,3.5-.3,5.1-.4,6.9-.2,13.7-.5,20.6-.7,8.2-.3,16.5-.5,24.7-.8,3-.1,5.9-.2,8.9-.4.4,0,.8-.2,1.3-.2.1,0,.2,0,.3,0Z"/>
        <path class="st0" d="M-740.7,650.9c-.3-.7-.6-1.3-.8-1.8-10.7-25.3-21.3-50.6-31.9-75.8-5.2-12.4-10.5-24.9-15.7-37.3q-1.1-2.5-3.9-1.5c0,.7,0,1.4,0,2.2,0,25.3,0,50.6,0,75.9,0,15.8,0,31.6,0,47.4,0,6.7.3,13.5.3,20.2,0,1.4-.2,2.9-.5,4.2-.8,3.4-2.7,6-5.8,7.6-1.4.8-3,1.4-4.5,1.9-15.4,5.3-30.8,10.6-46.1,16-.5.2-.9.3-1.5.4,0-.5-.2-.9-.2-1.3,0-.5,0-1.1,0-1.6,0-79.8,0-159.7,0-239.5s0-1.8,0-2.9c.7,0,1.2-.1,1.6-.1,24.3,0,48.7,0,73,0,6.3,0,12.6.2,18.9.3,1.5,0,2.7.6,3.7,1.5,2.5,2.1,4.3,4.8,5.5,7.9,3.9,10.1,7.9,20.1,11.7,30.2,7,18.3,13.8,36.6,20.7,54.9,3.1,8.1,6,16.2,9.1,24.3,1,2.7,2.4,5.3,3.5,8,.9,2.1,1.5,4.2,1.7,6.5.3,3.3-.4,6.5-2.2,9.3-1,1.7-2.2,3.3-3.5,4.8-9.5,10.3-18.4,21.1-27.4,31.8-1.5,1.8-3,3.5-4.5,5.3-.3.4-.7.8-1.2,1.3Z"/>
        <path class="st0" d="M-510.7,527.4v199.7h-59.9c0-.7-.2-1.5-.2-2.2,0-11.1,0-22.3,0-33.4,0-29.2.1-58.4.1-87.6,0-15.1-.2-30.3-.2-45.4,0-2.2,0-4.5.3-6.7.6-4.4,2.9-8,6.8-10.2,2.9-1.7,5.9-3.1,9-4.4,7.2-3.2,14.5-6,22.1-7.9,6.6-1.6,13.4-2.4,20.2-2.1.6,0,1.2.2,1.8.3Z"/>
        <path class="st0" d="M-582.2,556.1c-1,2.3-1.9,4.6-2.8,6.8-8.4,20.7-17,41.4-25.3,62.1-12.4,31-24.6,62.2-36.9,93.2-.7,1.8-1.6,3.5-2.6,5.1-2,3.1-5.1,4.6-8.8,4.8-2.8.1-5.7,0-8.6-.1-6.7,0-13.4-.2-20.1-.2-5.6,0-11.2.2-16.8.3-1.2,0-2.5-.2-3.7-.4-3.2-.8-5.3-2.8-6.5-5.8-.9-2.3-1.6-4.8-2.6-7.1-2.2-5.7-4.5-11.3-6.7-17-.1-.3-.2-.6-.4-.9-.4-.8-.2-1.3.4-1.9,2.1-2.1,4.1-4.3,6.2-6.4,9.3-9.7,18.7-19.3,28-29,6.8-7,13.5-13.9,20.3-20.9,9.2-9.5,18.3-18.9,27.5-28.4,5.9-6.1,11.8-12.2,17.8-18.3,7.6-7.9,15.2-15.8,22.9-23.7,4.8-4.9,9.5-9.9,14.3-14.8.1-.1.3-.2.5-.4,1.3,1,2.5,1.9,3.9,3Z"/>
      </g>
    </g>
    <text class="st7" transform="translate(-1006.4 718.7)"><tspan class="st4" x="0" y="0">J</tspan><tspan class="st0" x="114.9" y="0">m</tspan><tspan class="st4" x="390.3" y="0">vX</tspan></text>
  </g>
</svg>